<svg id="visual" viewBox="0 0 960 300" width="960" height="300" xmlns="http://www.w3.org/2000/svg" xmlns:xlink="http://www.w3.org/1999/xlink" version="1.1"><rect x="0" y="0" width="960" height="300" fill="#202731"></rect><path d="M0 180L22.8 179.8C45.7 179.7 91.3 179.3 137 188.3C182.7 197.3 228.3 215.7 274 214C319.7 212.3 365.3 190.7 411.2 186.3C457 182 503 195 548.8 201.5C594.7 208 640.3 208 686 200.7C731.7 193.3 777.3 178.7 823 176C868.7 173.3 914.3 182.7 937.2 187.3L960 192L960 0L937.2 0C914.3 0 868.7 0 823 0C777.3 0 731.7 0 686 0C640.3 0 594.7 0 548.8 0C503 0 457 0 411.2 0C365.3 0 319.7 0 274 0C228.3 0 182.7 0 137 0C91.3 0 45.7 0 22.8 0L0 0Z" fill="#202731"></path><path d="M0 143L22.8 152.5C45.7 162 91.3 181 137 184.3C182.7 187.7 228.3 175.3 274 170.3C319.7 165.3 365.3 167.7 411.2 163.7C457 159.7 503 149.3 548.8 155C594.7 160.7 640.3 182.3 686 193.8C731.7 205.3 777.3 206.7 823 196.7C868.7 186.7 914.3 165.3 937.2 154.7L960 144L960 0L937.2 0C914.3 0 868.7 0 823 0C777.3 0 731.7 0 686 0C640.3 0 594.7 0 548.8 0C503 0 457 0 411.2 0C365.3 0 319.7 0 274 0C228.3 0 182.7 0 137 0C91.3 0 45.7 0 22.8 0L0 0Z" fill="#2b3351"></path><path d="M0 126L22.8 131.2C45.7 136.3 91.3 146.7 137 151C182.7 155.3 228.3 153.7 274 147.7C319.7 141.7 365.3 131.3 411.2 131.7C457 132 503 143 548.8 152C594.7 161 640.3 168 686 171.2C731.7 174.3 777.3 173.7 823 172C868.7 170.3 914.3 167.7 937.2 166.3L960 165L960 0L937.2 0C914.3 0 868.7 0 823 0C777.3 0 731.7 0 686 0C640.3 0 594.7 0 548.8 0C503 0 457 0 411.2 0C365.3 0 319.7 0 274 0C228.3 0 182.7 0 137 0C91.3 0 45.7 0 22.8 0L0 0Z" fill="#483b6e"></path><path d="M0 150L22.8 147.2C45.7 144.3 91.3 138.7 137 130.5C182.7 122.3 228.3 111.7 274 106.8C319.7 102 365.3 103 411.2 103C457 103 503 102 548.8 107.5C594.7 113 640.3 125 686 130.3C731.7 135.7 777.3 134.3 823 132.5C868.7 130.7 914.3 128.3 937.2 127.2L960 126L960 0L937.2 0C914.3 0 868.7 0 823 0C777.3 0 731.7 0 686 0C640.3 0 594.7 0 548.8 0C503 0 457 0 411.2 0C365.3 0 319.7 0 274 0C228.3 0 182.7 0 137 0C91.3 0 45.7 0 22.8 0L0 0Z" fill="#733c81"></path><path d="M0 74L22.8 75C45.7 76 91.3 78 137 80.5C182.7 83 228.3 86 274 90.5C319.7 95 365.3 101 411.2 100.5C457 100 503 93 548.8 91.3C594.7 89.7 640.3 93.3 686 90.5C731.7 87.7 777.3 78.3 823 79C868.7 79.7 914.3 90.3 937.2 95.7L960 101L960 0L937.2 0C914.3 0 868.7 0 823 0C777.3 0 731.7 0 686 0C640.3 0 594.7 0 548.8 0C503 0 457 0 411.2 0C365.3 0 319.7 0 274 0C228.3 0 182.7 0 137 0C91.3 0 45.7 0 22.8 0L0 0Z" fill="#a53387"></path><path d="M0 58L22.8 58.8C45.7 59.7 91.3 61.3 137 65.7C182.7 70 228.3 77 274 79.7C319.7 82.3 365.3 80.7 411.2 79.8C457 79 503 79 548.8 77.3C594.7 75.7 640.3 72.3 686 70.7C731.7 69 777.3 69 823 69.5C868.7 70 914.3 71 937.2 71.5L960 72L960 0L937.2 0C914.3 0 868.7 0 823 0C777.3 0 731.7 0 686 0C640.3 0 594.7 0 548.8 0C503 0 457 0 411.2 0C365.3 0 319.7 0 274 0C228.3 0 182.7 0 137 0C91.3 0 45.7 0 22.8 0L0 0Z" fill="#d51f7d"></path><path d="M0 44L22.8 41.7C45.7 39.3 91.3 34.7 137 30.8C182.7 27 228.3 24 274 25.8C319.7 27.7 365.3 34.3 411.2 34.3C457 34.3 503 27.7 548.8 28.3C594.7 29 640.3 37 686 37C731.7 37 777.3 29 823 26.8C868.7 24.7 914.3 28.3 937.2 30.2L960 32L960 0L937.2 0C914.3 0 868.7 0 823 0C777.3 0 731.7 0 686 0C640.3 0 594.7 0 548.8 0C503 0 457 0 411.2 0C365.3 0 319.7 0 274 0C228.3 0 182.7 0 137 0C91.3 0 45.7 0 22.8 0L0 0Z" fill="#ff0066"></path></svg>